<?xml version="1.0" standalone="no"?>
<!DOCTYPE svg PUBLIC "-//W3C//DTD SVG 20010904//EN"
 "http://www.w3.org/TR/2001/REC-SVG-20010904/DTD/svg10.dtd">
<svg version="1.0" xmlns="http://www.w3.org/2000/svg"
 width="512.000000pt" height="512.000000pt" viewBox="0 0 512.000000 512.000000"
 preserveAspectRatio="xMidYMid meet">

<g transform="translate(0.000000,512.000000) scale(0.100000,-0.100000)"
fill="#000000" stroke="none">
<path d="M3580 4108 c-32 -16 -134 -117 -350 -344 -168 -177 -311 -325 -319
-328 -8 -4 -30 5 -50 18 -52 36 -157 81 -221 94 -80 17 -286 42 -350 42 -80 0
-225 -26 -289 -51 -31 -12 -89 -44 -130 -71 -59 -38 -77 -46 -86 -36 -6 7 -61
76 -121 153 -61 77 -159 202 -219 278 -59 76 -120 148 -136 161 -60 51 -150
38 -189 -26 -18 -30 -20 -50 -20 -238 0 -113 5 -361 12 -551 l12 -347 -65
-103 c-72 -113 -59 -105 -214 -140 -154 -34 -255 -69 -291 -101 -65 -57 -63
-150 5 -195 44 -30 82 -29 191 4 50 14 93 24 96 20 3 -3 -1 -48 -10 -100 -9
-52 -16 -108 -16 -126 0 -29 -6 -33 -91 -76 -124 -62 -145 -78 -164 -129 -14
-36 -15 -51 -6 -79 28 -83 108 -108 206 -63 31 14 61 24 65 21 5 -3 11 -20 15
-38 4 -17 25 -78 48 -135 l40 -103 -82 -76 c-92 -84 -111 -114 -111 -172 0
-49 35 -95 85 -111 51 -17 97 2 184 77 41 34 79 63 84 63 5 0 30 -17 56 -39
169 -141 334 -219 551 -261 226 -44 240 -45 555 -44 300 1 378 6 665 44 242
32 461 92 605 165 109 56 173 104 287 213 l87 84 46 -26 c25 -15 82 -65 127
-112 95 -97 144 -123 201 -105 72 24 105 100 74 172 -19 46 -167 201 -238 250
l-57 38 38 88 c21 48 41 103 45 121 4 18 13 36 20 39 25 9 130 -19 198 -53 76
-39 118 -42 164 -14 39 24 56 53 56 100 0 99 -90 165 -287 210 -43 10 -82 22
-86 27 -12 13 -23 283 -11 283 13 0 138 -26 224 -47 84 -20 135 -8 168 38 29
41 29 107 0 147 -36 51 -152 87 -398 122 l-81 12 -32 71 c-18 39 -58 110 -90
157 -64 93 -60 77 -115 440 -9 58 -25 159 -35 225 -10 66 -26 167 -35 225 -28
184 -46 222 -118 249 -39 15 -47 14 -97 -11z m-16 -435 c3 -21 18 -112 32
-203 14 -91 30 -192 35 -225 5 -33 14 -94 19 -135 14 -107 35 -170 70 -216 57
-74 100 -143 100 -161 0 -12 -15 -26 -42 -38 -92 -43 -115 -143 -49 -209 30
-29 35 -31 107 -30 72 0 75 -1 82 -25 4 -14 7 -66 7 -116 l0 -89 -35 -7 c-191
-40 -206 -44 -238 -74 -46 -42 -54 -105 -20 -155 39 -58 96 -73 193 -50 23 5
44 5 49 0 5 -5 -6 -38 -25 -77 -30 -59 -37 -68 -59 -65 -14 2 -65 6 -115 9
-83 4 -93 3 -125 -19 -19 -13 -40 -35 -47 -48 -31 -62 0 -141 67 -167 22 -9
40 -19 40 -24 0 -15 -96 -92 -165 -132 -167 -98 -484 -168 -897 -197 -453 -32
-830 6 -1032 106 -52 26 -185 118 -190 131 -7 17 53 54 134 83 36 13 75 30 88
38 49 32 67 114 37 171 -16 33 -69 61 -113 61 -54 0 -178 -50 -281 -113 -33
-20 -34 -20 -48 -1 -22 30 -55 149 -51 185 3 29 7 33 53 46 160 46 188 56 220
84 69 61 66 154 -7 199 -38 24 -83 23 -190 -6 -37 -10 -71 -15 -74 -11 -8 7
20 123 41 175 l15 34 87 -7 c82 -6 90 -5 123 17 85 57 77 165 -15 219 -19 12
-35 25 -35 31 0 5 15 27 33 50 l32 40 0 122 c0 66 -2 238 -4 381 -4 188 -2
260 7 260 6 0 78 -85 160 -190 82 -104 164 -198 181 -208 39 -23 98 -24 137
-4 16 9 55 43 87 76 38 39 83 72 125 93 65 32 70 33 221 36 257 6 365 -24 524
-144 50 -37 66 -44 106 -44 32 0 56 7 78 23 28 19 347 350 487 504 26 29 54
53 61 53 7 0 15 -17 19 -37z"/>
<path d="M1944 2749 c-138 -53 -218 -235 -168 -381 60 -178 322 -199 468 -38
49 55 66 100 66 182 0 111 -44 188 -133 233 -64 32 -157 34 -233 4z"/>
<path d="M2894 2754 c-23 -8 -60 -31 -83 -50 -139 -120 -145 -351 -12 -441
134 -91 354 -26 429 126 49 101 33 228 -41 310 -12 13 -44 34 -72 47 -59 28
-155 31 -221 8z"/>
<path d="M2685 1992 c-16 -11 -39 -29 -49 -41 -36 -40 -175 -68 -281 -56 -54
5 -72 13 -106 41 -53 44 -121 48 -168 9 -65 -56 -64 -138 5 -214 36 -40 56
-52 116 -72 62 -20 92 -24 203 -23 189 0 332 42 410 120 74 74 82 165 20 224
-34 32 -109 38 -150 12z"/>
</g>
</svg>
